<svg viewBox="0 0 11 12" fill="none" xmlns="http://www.w3.org/2000/svg">
<path fill-rule="evenodd" clip-rule="evenodd" d="M5.01417 4.13917C5.14307 4.01042 5.31781 3.93811 5.5 3.93811C5.68219 3.93811 5.85693 4.01042 5.98583 4.13917L8.57908 6.7315C8.708 6.86047 8.78039 7.03537 8.78035 7.21772C8.78033 7.30802 8.76252 7.39742 8.72795 7.48083C8.69338 7.56424 8.64272 7.64002 8.57885 7.70385C8.51499 7.76768 8.43919 7.81831 8.35576 7.85285C8.27233 7.88738 8.18292 7.90514 8.09263 7.90512C8.00234 7.9051 7.91294 7.88729 7.82952 7.85272C7.74611 7.81815 7.67033 7.76749 7.6065 7.70363L5.5 5.59758L3.3935 7.70408C3.33011 7.76978 3.25427 7.82219 3.17041 7.85826C3.08655 7.89433 2.99635 7.91333 2.90506 7.91417C2.81378 7.91501 2.72324 7.89765 2.63873 7.86313C2.55423 7.8286 2.47744 7.77759 2.41286 7.71306C2.34828 7.64854 2.29719 7.57181 2.26259 7.48733C2.22798 7.40286 2.21054 7.31234 2.21129 7.22105C2.21204 7.12977 2.23096 7.03954 2.26695 6.95565C2.30294 6.87175 2.35528 6.79587 2.42092 6.73242L5.01417 4.13825V4.13917Z" fill="white"/>
</svg>
