<svg width="24" height="24" viewBox="0 0 24 24" fill="none" xmlns="http://www.w3.org/2000/svg">
<path fill-rule="evenodd" clip-rule="evenodd" d="M10.94 16.06C11.2212 16.3409 11.6025 16.4987 12 16.4987C12.3975 16.4987 12.7787 16.3409 13.06 16.06L18.718 10.404C18.9993 10.1226 19.1572 9.741 19.1571 9.34315C19.1571 9.14615 19.1182 8.95109 19.0428 8.7691C18.9674 8.58711 18.8568 8.42177 18.7175 8.2825C18.5782 8.14323 18.4128 8.03277 18.2307 7.95743C18.0487 7.88208 17.8536 7.84333 17.6566 7.84337C17.4596 7.84342 17.2646 7.88227 17.0826 7.9577C16.9006 8.03313 16.7353 8.14367 16.596 8.283L12 12.878L7.404 8.282C7.2657 8.13867 7.10023 8.02432 6.91726 7.94562C6.7343 7.86692 6.53749 7.82545 6.33832 7.82363C6.13915 7.82181 5.94162 7.85967 5.75724 7.935C5.57286 8.01033 5.40533 8.12163 5.26442 8.26241C5.12352 8.40318 5.01206 8.5706 4.93655 8.75491C4.86104 8.93922 4.823 9.13672 4.82463 9.33589C4.82627 9.53506 4.86756 9.73191 4.94608 9.91495C5.02461 10.098 5.1388 10.2636 5.282 10.402L10.94 16.062V16.06Z" fill="black"/>
</svg>
