<svg viewBox="0 0 11 12" fill="none" xmlns="http://www.w3.org/2000/svg">
<path d="M7.97703 2.80601C7.65395 2.52547 7.23649 2.37792 6.80888 2.39314C6.38127 2.40836 5.97535 2.58521 5.67303 2.88801L2.28003 6.28001C2.21137 6.35369 2.12857 6.4128 2.03657 6.45379C1.94457 6.49478 1.84526 6.51682 1.74455 6.5186C1.64385 6.52038 1.54382 6.50185 1.45043 6.46413C1.35705 6.42641 1.27221 6.37026 1.20099 6.29905C1.12977 6.22783 1.07363 6.14299 1.03591 6.0496C0.998188 5.95622 0.979663 5.85619 0.98144 5.75548C0.983217 5.65478 1.00526 5.55547 1.04625 5.46347C1.08724 5.37147 1.14634 5.28867 1.22003 5.22001L4.61203 1.82801C4.9108 1.52938 5.26586 1.29302 5.65665 1.13264C6.04744 0.972256 6.46618 0.891032 6.88859 0.893678C7.311 0.896324 7.72868 0.982787 8.11743 1.14805C8.50618 1.31332 8.85826 1.55411 9.15326 1.85645C9.44826 2.1588 9.68031 2.51669 9.83597 2.90939C9.99163 3.30208 10.0678 3.72177 10.0601 4.14411C10.0523 4.56646 9.96082 4.98308 9.79087 5.3698C9.62093 5.75653 9.37591 6.10568 9.07003 6.39701L4.34603 10.893C4.16527 11.0694 3.95153 11.2084 3.71704 11.3022C3.48254 11.3959 3.23187 11.4426 2.97934 11.4395C2.46934 11.4332 1.98272 11.2246 1.62653 10.8595C1.27035 10.4944 1.07377 10.0028 1.08005 9.49282C1.08634 8.98281 1.29496 8.49619 1.66003 8.14001L5.90303 3.89601C5.97225 3.82441 6.05504 3.76731 6.14656 3.72805C6.23808 3.68878 6.3365 3.66814 6.43609 3.66732C6.53567 3.66651 6.63442 3.68553 6.72658 3.72328C6.81873 3.76104 6.90244 3.81677 6.97283 3.88722C7.04321 3.95767 7.09886 4.04144 7.13653 4.13363C7.1742 4.22582 7.19313 4.32458 7.19222 4.42417C7.1913 4.52375 7.17057 4.62216 7.13122 4.71364C7.09187 4.80512 7.0347 4.88786 6.96303 4.95701L2.72303 9.20101C2.64885 9.28051 2.60814 9.38552 2.60934 9.49425C2.61053 9.60298 2.65356 9.70707 2.72947 9.78491C2.80539 9.86276 2.90837 9.90838 3.01703 9.91231C3.12569 9.91623 3.23169 9.87817 3.31303 9.80601L8.03503 5.31001C8.20615 5.14758 8.34136 4.95112 8.43197 4.73327C8.52257 4.51542 8.56655 4.28102 8.56109 4.04515C8.55563 3.80928 8.50083 3.57716 8.40024 3.36375C8.29965 3.15033 8.15549 2.96034 7.97703 2.80601Z" fill="white"/>
</svg>
