<svg viewBox="0 0 11 6" fill="none" xmlns="http://www.w3.org/2000/svg">
<path fill-rule="evenodd" clip-rule="evenodd" d="M2.84483 1.29311C2.39213 1.29311 1.95797 1.47295 1.63787 1.79305C1.31776 2.11316 1.13793 2.54731 1.13793 3.00001C1.13793 3.45271 1.31776 3.88686 1.63787 4.20697C1.95797 4.52707 2.39213 4.7069 2.84483 4.7069H4.18806C4.50229 4.7069 4.75703 4.96164 4.75703 5.27587C4.75703 5.5901 4.50229 5.84483 4.18806 5.84483H2.84483C2.09033 5.84483 1.36674 5.54511 0.833231 5.0116C0.299722 4.4781 0 3.7545 0 3.00001C0 2.24551 0.299722 1.52192 0.833231 0.988412C1.36674 0.454904 2.09033 0.155182 2.84483 0.155182H4.15843C4.47266 0.155182 4.72739 0.409916 4.72739 0.724147C4.72739 1.03838 4.47266 1.29311 4.15843 1.29311H2.84483ZM6.27261 0.724147C6.27261 0.409916 6.52734 0.155182 6.84157 0.155182H8.15517C8.90967 0.155182 9.63326 0.454904 10.1668 0.988412C10.7003 1.52192 11 2.24551 11 3.00001C11 3.7545 10.7003 4.4781 10.1668 5.0116C9.63326 5.54511 8.90967 5.84483 8.15517 5.84483H6.81194C6.49771 5.84483 6.24297 5.5901 6.24297 5.27587C6.24297 4.96164 6.49771 4.7069 6.81194 4.7069H8.15517C8.60787 4.7069 9.04203 4.52707 9.36213 4.20697C9.68224 3.88686 9.86207 3.45271 9.86207 3.00001C9.86207 2.54731 9.68224 2.11316 9.36213 1.79305C9.04203 1.47295 8.60787 1.29311 8.15517 1.29311H6.84157C6.52734 1.29311 6.27261 1.03838 6.27261 0.724147ZM2.87019 3.00001C2.87019 2.68578 3.12493 2.43104 3.43916 2.43104H7.60825C7.92248 2.43104 8.17722 2.68578 8.17722 3.00001C8.17722 3.31424 7.92248 3.56897 7.60825 3.56897H3.43916C3.12493 3.56897 2.87019 3.31424 2.87019 3.00001Z" fill="white"/>
</svg>
