<svg viewBox="0 0 14.6333 14.6334" fill="none" xmlns="http://www.w3.org/2000/svg" xmlns:xlink="http://www.w3.org/1999/xlink">
	<desc>
			Created with Pixso.
	</desc>
	<defs/>
	<path id="Icon" d="M12.65 5.31C13.38 5.31 13.98 5.91 13.98 6.65L13.98 12.65C13.98 13.38 13.38 13.98 12.65 13.98L6.64 13.98C5.91 13.98 5.31 13.38 5.31 12.65L5.31 6.65C5.31 5.91 5.91 5.31 6.64 5.31L12.65 5.31ZM2.64 9.31L1.98 9.31C1.62 9.31 1.29 9.17 1.04 8.92C0.79 8.67 0.64 8.33 0.64 7.98L0.64 1.98C0.64 1.62 0.79 1.29 1.04 1.04C1.29 0.79 1.62 0.65 1.98 0.65L7.98 0.65C8.33 0.65 8.67 0.79 8.92 1.04C9.17 1.29 9.31 1.62 9.31 1.98L9.31 2.65" stroke-opacity="1.000000" stroke-width="1.300000" stroke-linejoin="round" stroke-linecap="round"/>
</svg>
