<?xml version="1.0" standalone="no"?>
<!DOCTYPE svg PUBLIC "-//W3C//DTD SVG 20010904//EN"
 "http://www.w3.org/TR/2001/REC-SVG-20010904/DTD/svg10.dtd">
<svg version="1.0" xmlns="http://www.w3.org/2000/svg" viewBox="0 0 24.000000 24.000000" preserveAspectRatio="xMidYMid meet">
    <g transform="translate(0.000000,24.000000) scale(0.100000,-0.100000)"
    fill="#000000" stroke="none">
    <path d="M37 223 c-11 -11 -8 -153 3 -153 6 0 10 30 10 70 l0 70 60 0 c33 0
    60 4 60 10 0 11 -123 14 -133 3z"/>
    <path d="M74 177 c-3 -8 -4 -47 -2 -88 l3 -74 70 0 70 0 3 64 c3 54 0 67 -19
    87 -18 19 -33 24 -71 24 -31 0 -50 -5 -54 -13z m106 -77 c0 -5 -16 -10 -35
    -10 -19 0 -35 5 -35 10 0 6 16 10 35 10 19 0 35 -4 35 -10z m0 -40 c0 -5 -16
    -10 -35 -10 -19 0 -35 5 -35 10 0 6 16 10 35 10 19 0 35 -4 35 -10z"/>
    </g>
</svg>
