<svg viewBox="0 0 16 16" fill="none" xmlns="http://www.w3.org/2000/svg" xmlns:xlink="http://www.w3.org/1999/xlink">
	<defs/>
	<path id="icon" d="M3.33 12.66L4.28 12.66L10.8 6.15L9.85 5.2L3.33 11.71L3.33 12.66ZM2 14L2 11.16L10.8 2.38C10.93 2.26 11.08 2.16 11.24 2.09C11.4 2.03 11.57 2 11.75 2C11.92 2 12.1 2.03 12.26 2.09C12.43 2.16 12.57 2.26 12.7 2.4L13.61 3.33C13.75 3.45 13.84 3.59 13.9 3.76C13.96 3.93 14 4.09 14 4.26C14 4.44 13.96 4.61 13.9 4.77C13.84 4.93 13.75 5.08 13.61 5.21L4.83 14L2 14ZM10.31 5.68L9.85 5.2L10.8 6.15L10.31 5.68Z" fill-opacity="1.000000" fill-rule="evenodd"/>
</svg>
