<svg viewBox="0 0 11 10" fill="none" xmlns="http://www.w3.org/2000/svg">
<path d="M10.6439 6.70219L7.44158 1.36461C7.02125 0.664231 6.37829 0.263397 5.67629 0.263397C4.97429 0.263397 4.33133 0.66423 3.911 1.36352L0.708663 6.70219C0.282912 7.41123 0.236329 8.1674 0.581371 8.77677C0.925871 9.38669 1.59862 9.73661 2.42629 9.73661H8.92629C9.75395 9.73661 10.4267 9.38669 10.7712 8.77731C11.1157 8.16794 11.0697 7.41177 10.6439 6.70219ZM5.67629 7.86731C5.2137 7.86731 4.8367 7.49086 4.8367 7.02827C4.8367 6.56515 5.21316 6.18815 5.67629 6.18815C6.13941 6.18815 6.51587 6.56515 6.51587 7.02827C6.51587 7.49086 6.13887 7.86731 5.67629 7.86731ZM6.56083 3.84598C6.55487 3.86277 5.80195 5.72448 5.80195 5.72448C5.78137 5.7754 5.73154 5.80898 5.67683 5.80898C5.62212 5.80898 5.57229 5.7754 5.5517 5.72448L4.79825 3.86223C4.75304 3.74936 4.72934 3.62903 4.72837 3.50744C4.72837 2.98473 5.15358 2.55952 5.67629 2.55952C5.82981 2.55992 5.98094 2.59755 6.11671 2.66919C6.25249 2.74083 6.36886 2.84434 6.45584 2.97084C6.54282 3.09734 6.59781 3.24306 6.6161 3.39548C6.63439 3.54791 6.61542 3.7025 6.56083 3.84598Z" fill="white"/>
</svg>
