<svg viewBox="0 0 12 15" fill="none" xmlns="http://www.w3.org/2000/svg">
<path d="M5.87302 0.7C5.46724 0.7 5.07807 0.861196 4.79114 1.14813C4.50421 1.43506 4.34302 1.82422 4.34302 2.23V3.50704C4.42462 3.56235 4.50214 3.62627 4.57558 3.6988L5.36302 4.48692V2.23C5.36302 2.09474 5.41675 1.96502 5.51239 1.86938C5.60804 1.77373 5.73776 1.72 5.87302 1.72H9.95302C10.0883 1.72 10.218 1.77373 10.3136 1.86938C10.4093 1.96502 10.463 2.09474 10.463 2.23V12.77C10.463 12.9053 10.4093 13.035 10.3136 13.1306C10.218 13.2263 10.0883 13.28 9.95302 13.28H5.87302C5.73776 13.28 5.60804 13.2263 5.51239 13.1306C5.41675 13.035 5.36302 12.9053 5.36302 12.77V10.5131L4.57558 11.3019C4.50304 11.3744 4.42552 11.4379 4.34302 11.4923V12.77C4.34302 13.1758 4.50421 13.5649 4.79114 13.8519C5.07807 14.1388 5.46724 14.3 5.87302 14.3H9.95302C10.3588 14.3 10.748 14.1388 11.0349 13.8519C11.3218 13.5649 11.483 13.1758 11.483 12.77V2.23C11.483 1.82422 11.3218 1.43506 11.0349 1.14813C10.748 0.861196 10.3588 0.7 9.95302 0.7H5.87302Z" fill="white" fill-opacity="0.64"/>
<path d="M0.433105 7.5C0.433105 7.65368 0.501105 7.79104 0.608545 7.88488L3.30203 10.5804C3.34905 10.6291 3.40531 10.668 3.46752 10.6948C3.52972 10.7215 3.59664 10.7356 3.66436 10.7362C3.73207 10.7369 3.79924 10.724 3.86192 10.6984C3.92461 10.6728 3.98157 10.6349 4.02948 10.5871C4.07739 10.5392 4.11529 10.4823 4.14096 10.4196C4.16663 10.3569 4.17957 10.2898 4.17901 10.2221C4.17845 10.1544 4.16442 10.0874 4.13772 10.0252C4.11102 9.96296 4.07219 9.90667 4.02351 9.8596L2.17527 8.01H6.21311C6.34837 8.01 6.47809 7.95627 6.57373 7.86063C6.66937 7.76498 6.72311 7.63526 6.72311 7.5C6.72311 7.36474 6.66937 7.23502 6.57373 7.13938C6.47809 7.04373 6.34837 6.99 6.21311 6.99H2.17527L4.02351 5.1404C4.11359 5.04372 4.16264 4.91585 4.1603 4.78373C4.15797 4.6516 4.10445 4.52554 4.01101 4.4321C3.91757 4.33866 3.79151 4.28513 3.65938 4.2828C3.52726 4.28047 3.39938 4.32951 3.30271 4.4196L0.607185 7.11648C0.552531 7.16432 0.508728 7.22329 0.478706 7.28943C0.448684 7.35557 0.433137 7.42736 0.433105 7.5Z" fill="white" fill-opacity="0.64"/>
</svg>
