<svg viewBox="0 0 12 15" fill="none" xmlns="http://www.w3.org/2000/svg">
<path d="M1.64486e-05 4.83333L4.00202 0.833332H11.332C11.7 0.833332 12 1.13667 12 1.49467V13.5053C11.9998 13.6808 11.93 13.849 11.8059 13.973C11.6818 14.097 11.5135 14.1667 11.338 14.1667H0.662016C0.574468 14.1661 0.487897 14.1482 0.407247 14.1141C0.326597 14.0801 0.253447 14.0304 0.191974 13.9681C0.130501 13.9058 0.0819093 13.8319 0.0489732 13.7508C0.016037 13.6697 -0.000598536 13.5829 1.64486e-05 13.4953V4.83333ZM4.66668 2.16667V5.5H1.33335V12.8333H10.6667V2.16667H4.66668Z" fill="#A6A6A6"/>
</svg>
