<svg viewBox="0 0 10 12" fill="none" xmlns="http://www.w3.org/2000/svg">
<path d="M10 2.78001V5.88001C10 6.10667 9.95778 6.32001 9.87333 6.52001C9.78889 6.72001 9.67333 6.89556 9.52667 7.04667C9.38 7.19778 9.20889 7.31778 9.01333 7.40667C8.81778 7.49556 8.60444 7.54001 8.37333 7.54001H5.12C4.84889 7.54001 4.59111 7.59334 4.34667 7.70001C4.10222 7.80667 3.88444 7.95334 3.69333 8.14001C3.50222 8.32667 3.35333 8.54001 3.24667 8.78001C3.14 9.02001 3.08444 9.28001 3.08 9.56001V11.0467H1.96667C1.71333 11.0467 1.49111 11.0022 1.3 10.9133C1.10889 10.8245 0.944444 10.7045 0.806667 10.5533C0.668889 10.4022 0.551111 10.2267 0.453333 10.0267C0.355556 9.82667 0.282222 9.61556 0.233333 9.39334C0.166667 9.12223 0.111111 8.8489 0.0666667 8.57334C0.0222222 8.29778 0 8.01778 0 7.73334C0 7.45334 0.0222222 7.17556 0.0666667 6.90001C0.111111 6.62445 0.166667 6.35334 0.233333 6.08667C0.295556 5.83778 0.386667 5.61334 0.506667 5.41334C0.626667 5.21334 0.775556 5.04001 0.953333 4.89334C1.13111 4.74667 1.32667 4.63334 1.54 4.55334C1.75333 4.47334 1.99556 4.43334 2.26667 4.43334H6.74667V4.02001H3.49333V2.78001C3.49333 2.48667 3.52444 2.24223 3.58667 2.04667C3.64889 1.85112 3.74889 1.69112 3.88667 1.56667C4.02444 1.44223 4.19333 1.34445 4.39333 1.27334C4.59333 1.20223 4.83556 1.14001 5.12 1.08667C5.37333 1.03778 5.63111 1.00445 5.89333 0.986672C6.15556 0.968894 6.41556 0.957783 6.67333 0.953339C6.95778 0.953339 7.24222 0.962228 7.52667 0.980005C7.81111 0.997783 8.09333 1.03334 8.37333 1.08667C8.58667 1.12667 8.79111 1.19334 8.98667 1.28667C9.18222 1.38001 9.35333 1.49778 9.5 1.64001C9.64667 1.78223 9.76667 1.95112 9.86 2.14667C9.95333 2.34223 10 2.55334 10 2.78001ZM4.91333 3.19334C4.99778 3.19334 5.07778 3.17778 5.15333 3.14667C5.22889 3.11556 5.29333 3.07112 5.34667 3.01334C5.4 2.95556 5.44444 2.88889 5.48 2.81334C5.51556 2.73778 5.53111 2.65778 5.52667 2.57334C5.52667 2.48889 5.51111 2.41112 5.48 2.34001C5.44889 2.26889 5.40444 2.20223 5.34667 2.14001C5.28889 2.07778 5.22444 2.03334 5.15333 2.00667C5.08222 1.98001 5.00222 1.96223 4.91333 1.95334C4.82889 1.95334 4.74889 1.96889 4.67333 2.00001C4.59778 2.03112 4.53333 2.07556 4.48 2.13334C4.42667 2.19112 4.38222 2.25778 4.34667 2.33334C4.31111 2.40889 4.29556 2.48889 4.3 2.57334C4.3 2.65778 4.31556 2.73778 4.34667 2.81334C4.37778 2.88889 4.42 2.95334 4.47333 3.00667C4.52667 3.06001 4.59333 3.10445 4.67333 3.14001C4.75333 3.17556 4.83333 3.19334 4.91333 3.19334Z" fill="white"/>
</svg>
