<svg viewBox="0 0 12 10" fill="none" xmlns="http://www.w3.org/2000/svg">
<path d="M3.318 8.18197C4.05422 8.9182 5.02297 9.37636 6.05914 9.47836C7.09532 9.58036 8.1348 9.3199 9.00046 8.74136C9.86611 8.16282 10.5044 7.302 10.8064 6.3056C11.1085 5.3092 11.0557 4.23888 10.6571 3.27704C10.2584 2.3152 9.53859 1.52135 8.62021 1.03079C7.70184 0.540226 6.64177 0.383302 5.62066 0.586759C4.59955 0.790216 3.68058 1.34146 3.02037 2.14656C2.36015 2.95166 1.99955 3.96078 2 5.00197V5.99997M2 5.99997L1 4.99997M2 5.99997L3 4.99997M6 2.99997V5.49997H8.5" stroke="white" stroke-opacity="0.68" stroke-linecap="round" stroke-linejoin="round"/>
</svg>
