<svg viewBox="0 0 16 15" fill="none" xmlns="http://www.w3.org/2000/svg">
<path d="M8.19656 5.50969C7.78621 5.46916 7.37337 5.55646 7.01455 5.75963C6.65573 5.96281 6.36848 6.27192 6.19213 6.64465C6.01578 7.01739 5.95895 7.43552 6.02942 7.8418C6.09989 8.24808 6.29421 8.62265 6.58578 8.91422C6.87736 9.20579 7.25193 9.40011 7.65821 9.47058C8.06449 9.54105 8.48262 9.48422 8.85535 9.30787C9.22808 9.13152 9.5372 8.84427 9.74037 8.48545C9.94354 8.12663 10.0308 7.71379 9.99031 7.30344C9.94411 6.84343 9.74028 6.41354 9.41337 6.08663C9.08646 5.75972 8.65657 5.55589 8.19656 5.50969ZM13.0122 7.5C13.0109 7.71739 12.995 7.93445 12.9644 8.14969L14.3772 9.25781C14.4387 9.30881 14.4802 9.37996 14.4942 9.45863C14.5082 9.5373 14.4939 9.61839 14.4538 9.6875L13.1172 12C13.0766 12.0684 13.0132 12.1204 12.938 12.1466C12.8629 12.1728 12.7809 12.1717 12.7066 12.1434L11.3034 11.5784C11.2261 11.5476 11.1423 11.5365 11.0595 11.546C10.9768 11.5556 10.8977 11.5855 10.8294 11.6331C10.6152 11.7806 10.3902 11.9116 10.1563 12.025C10.0827 12.0607 10.0191 12.1141 9.97101 12.1802C9.92294 12.2464 9.8919 12.3234 9.88063 12.4044L9.67031 13.9009C9.6565 13.98 9.61567 14.0518 9.55479 14.104C9.49392 14.1563 9.41678 14.1858 9.33656 14.1875H6.66344C6.58455 14.1861 6.50847 14.1579 6.44775 14.1076C6.38702 14.0572 6.34527 13.9876 6.32938 13.9103L6.11938 12.4159C6.10758 12.334 6.07574 12.2563 6.02667 12.1897C5.97761 12.1231 5.91284 12.0696 5.83813 12.0341C5.60442 11.9213 5.38016 11.7899 5.1675 11.6412C5.09941 11.5939 5.02059 11.5642 4.93816 11.5549C4.85573 11.5455 4.77228 11.5568 4.69531 11.5878L3.2925 12.1525C3.21816 12.1808 3.13621 12.182 3.0611 12.1558C2.98598 12.1296 2.92251 12.0778 2.88188 12.0094L1.54531 9.69687C1.50513 9.62778 1.49077 9.54668 1.50479 9.46799C1.51881 9.3893 1.5603 9.31815 1.62188 9.26719L2.81594 8.32969C2.88136 8.27776 2.93277 8.21031 2.96551 8.13348C2.99826 8.05664 3.01129 7.97284 3.00344 7.88969C2.99219 7.75938 2.98531 7.62938 2.98531 7.49906C2.98531 7.36875 2.99188 7.24062 3.00344 7.11312C3.01043 7.03048 2.99676 6.94739 2.96365 6.87134C2.93053 6.7953 2.87902 6.72868 2.81375 6.6775L1.62031 5.74C1.55974 5.68878 1.51912 5.61787 1.50558 5.53971C1.49204 5.46155 1.50644 5.38111 1.54625 5.3125L2.88281 3C2.9234 2.93156 2.98685 2.87964 3.06197 2.8534C3.13709 2.82716 3.21906 2.82828 3.29344 2.85656L4.69656 3.42156C4.77394 3.45237 4.85775 3.4635 4.94049 3.45396C5.02322 3.44441 5.1023 3.41449 5.17063 3.36687C5.38477 3.21942 5.60979 3.08841 5.84375 2.975C5.91731 2.93925 5.98093 2.88594 6.029 2.81977C6.07707 2.75361 6.10811 2.67663 6.11938 2.59562L6.32969 1.09906C6.3435 1.02003 6.38434 0.948239 6.44521 0.895971C6.50609 0.843703 6.58322 0.814199 6.66344 0.8125H9.33656C9.41546 0.813865 9.49153 0.842063 9.55226 0.892448C9.61298 0.942833 9.65473 1.0124 9.67063 1.08969L9.88063 2.58406C9.89242 2.66596 9.92426 2.74367 9.97333 2.81029C10.0224 2.87691 10.0872 2.93038 10.1619 2.96594C10.3956 3.0787 10.6198 3.21006 10.8325 3.35875C10.9006 3.40613 10.9794 3.43582 11.0618 3.44515C11.1443 3.45448 11.2277 3.44315 11.3047 3.41219L12.7075 2.8475C12.7818 2.81919 12.8638 2.81802 12.9389 2.84421C13.014 2.87039 13.0775 2.92224 13.1181 2.99062L14.4547 5.30312C14.4949 5.37221 14.5092 5.45332 14.4952 5.53201C14.4812 5.6107 14.4397 5.68185 14.3781 5.73281L13.1841 6.67031C13.1184 6.72207 13.0666 6.78944 13.0336 6.86629C13.0006 6.94314 12.9873 7.02702 12.995 7.11031C13.0053 7.23969 13.0122 7.36969 13.0122 7.5Z" stroke="#989898" stroke-width="1.2" stroke-linecap="round" stroke-linejoin="round"/>
</svg>
