<svg width="24" height="24" viewBox="0 0 24 24" fill="none" xmlns="http://www.w3.org/2000/svg">
<path fill-rule="evenodd" clip-rule="evenodd" d="M10.94 7.94C11.2212 7.6591 11.6025 7.50132 12 7.50132C12.3975 7.50132 12.7787 7.6591 13.06 7.94L18.718 13.596C18.9993 13.8774 19.1572 14.259 19.1571 14.6569C19.1571 14.8539 19.1182 15.0489 19.0428 15.2309C18.9674 15.4129 18.8568 15.5782 18.7175 15.7175C18.5782 15.8568 18.4128 15.9672 18.2307 16.0426C18.0487 16.1179 17.8536 16.1567 17.6566 16.1566C17.4596 16.1566 17.2646 16.1177 17.0826 16.0423C16.9006 15.9669 16.7353 15.8563 16.596 15.717L12 11.122L7.404 15.718C7.2657 15.8613 7.10023 15.9757 6.91726 16.0544C6.7343 16.1331 6.53749 16.1745 6.33832 16.1764C6.13915 16.1782 5.94162 16.1403 5.75724 16.065C5.57286 15.9897 5.40533 15.8784 5.26442 15.7376C5.12352 15.5968 5.01206 15.4294 4.93655 15.2451C4.86104 15.0608 4.823 14.8633 4.82463 14.6641C4.82627 14.4649 4.86756 14.2681 4.94608 14.0851C5.02461 13.902 5.1388 13.7364 5.282 13.598L10.94 7.938V7.94Z" fill="black"/>
</svg>
